<svg width="32" height="32" viewBox="0 0 32 32" fill="none" xmlns="http://www.w3.org/2000/svg">
<path d="M28.875 0H3.125C1.39911 0 0 1.39911 0 3.125V28.875C0 30.6009 1.39911 32 3.125 32H28.875C30.6009 32 32 30.6009 32 28.875V3.125C32 1.39911 30.6009 0 28.875 0Z" fill="url(#paint0_linear)"/>
<path d="M26.3401 4.16016H19.5801C18.7517 4.16016 18.0801 4.83173 18.0801 5.66016V16.6602C18.0801 17.4886 18.7517 18.1602 19.5801 18.1602H26.3401C27.1685 18.1602 27.8401 17.4886 27.8401 16.6602V5.66016C27.8401 4.83173 27.1685 4.16016 26.3401 4.16016Z" fill="white"/>
<path d="M12.4199 4.16016H5.65991C4.83148 4.16016 4.15991 4.83173 4.15991 5.66016V24.6602C4.15991 25.4886 4.83148 26.1602 5.65991 26.1602H12.4199C13.2483 26.1602 13.9199 25.4886 13.9199 24.6602V5.66016C13.9199 4.83173 13.2483 4.16016 12.4199 4.16016Z" fill="white"/>
<defs>
<linearGradient id="paint0_linear" x1="16" y1="0" x2="16" y2="32" gradientUnits="userSpaceOnUse">
<stop stop-color="#0091E6"/>
<stop offset="1" stop-color="#0079BF"/>
</linearGradient>
</defs>
</svg>
