<svg width="35" height="32" viewBox="0 0 35 32" fill="none" xmlns="http://www.w3.org/2000/svg">
<g clip-path="url(#clip0)">
<path d="M17.3661 32.0102L23.7531 12.3533H10.979L17.366 32.0102H17.3661Z" fill="#E24329"/>
<path d="M17.3661 32.01L10.979 12.353H2.02795L17.3661 32.01Z" fill="#FC6D26"/>
<path d="M2.02795 12.353L0.0870708 18.3267C0.00077319 18.5923 0.000761285 18.8784 0.0870368 19.1439C0.173312 19.4095 0.341446 19.641 0.567342 19.8051L17.3661 32.0101L2.02782 12.3532L2.02795 12.353Z" fill="#FCA326"/>
<path d="M2.02795 12.3531H10.979L7.13236 0.513749C6.9344 -0.0954712 6.07256 -0.0953356 5.87473 0.513749L2.02795 12.3531Z" fill="#E24329"/>
<path d="M17.3661 32.01L23.7531 12.353H32.7043L17.366 32.01H17.3661Z" fill="#FC6D26"/>
<path d="M32.7043 12.353L34.6451 18.3267C34.7314 18.5923 34.7314 18.8784 34.6451 19.144C34.5588 19.4095 34.3906 19.641 34.1647 19.8051L17.3661 32.0101L32.7043 12.3532V12.353Z" fill="#FCA326"/>
<path d="M32.7042 12.3531H23.7531L27.5998 0.513749C27.7978 -0.0954712 28.6596 -0.0953356 28.8575 0.513749L32.7042 12.3531Z" fill="#E24329"/>
</g>
<defs>
<clipPath id="clip0">
<rect width="34.7119" height="32" fill="white"/>
</clipPath>
</defs>
</svg>
