<svg width="40" height="40" viewBox="0 0 40 40" fill="none" xmlns="http://www.w3.org/2000/svg">
<circle cx="20" cy="20" r="20" fill="#6BBBAE"/>
<path fill-rule="evenodd" clip-rule="evenodd" d="M33.9999 29.8793H30.4705C30.1001 29.8798 29.739 29.7634 29.4386 29.5467C29.1382 29.33 28.9139 29.024 28.7976 28.6723L26.9376 23.2176L25.0776 28.6723C24.9606 29.0235 24.7361 29.3291 24.4359 29.5457C24.1356 29.7623 23.7749 29.879 23.4046 29.8793H19.8788C19.0864 29.8793 18.3894 29.3499 18.1776 28.5876L15.4688 18.9452L12.7599 28.5876C12.6566 28.9592 12.4342 29.2868 12.127 29.5201C11.8198 29.7534 11.4445 29.8795 11.0588 29.8793H5.76465V26.4664H9.71759L13.7676 11.8758C13.8703 11.5034 14.0923 11.1751 14.3996 10.9411C14.7069 10.707 15.0825 10.5803 15.4688 10.5803C15.855 10.5803 16.2306 10.707 16.5379 10.9411C16.8452 11.1751 17.0672 11.5034 17.1699 11.8758L21.2199 26.4664H22.1341L25.2629 17.0852C25.381 16.7349 25.6061 16.4305 25.9064 16.2149C26.2067 15.9993 26.567 15.8833 26.9367 15.8833C27.3064 15.8833 27.6667 15.9993 27.967 16.2149C28.2673 16.4305 28.4924 16.7349 28.6105 17.0852L31.7411 26.4664H33.9999V29.8793Z" fill="#EEEEEE"/>
</svg>
