<svg width="65" height="69" viewBox="0 0 65 69" fill="none" xmlns="http://www.w3.org/2000/svg">
<circle cx="34" cy="20" r="20" fill="#6BBBAE"/>
<path d="M15.519 48.5098C15.519 48.9102 15.436 49.2739 15.27 49.6011C15.104 49.9233 14.8818 50.2017 14.6035 50.436C14.3252 50.6704 14.0054 50.8511 13.644 50.978C13.2827 51.105 12.9067 51.1685 12.5161 51.1685C11.979 51.1685 11.4858 51.0684 11.0366 50.8682C10.5874 50.668 10.231 50.3726 9.96729 49.9819V51H9.11768V48.0923H9.96729C9.96729 48.4194 10.043 48.7197 10.1943 48.9932C10.3457 49.2617 10.5386 49.4937 10.7729 49.689C11.0073 49.8843 11.2759 50.0381 11.5786 50.1504C11.8862 50.2578 12.1987 50.3115 12.5161 50.3115C12.7993 50.3115 13.0605 50.2725 13.2998 50.1943C13.5391 50.1113 13.749 49.9966 13.9297 49.8501C14.1104 49.6987 14.252 49.5156 14.3545 49.3008C14.4619 49.0859 14.5156 48.8418 14.5156 48.5684C14.5156 48.2607 14.4473 47.9971 14.3105 47.7773C14.1787 47.5576 13.998 47.3696 13.7686 47.2134C13.5439 47.0571 13.29 46.9253 13.0068 46.8179C12.7236 46.7056 12.4355 46.5957 12.1426 46.4883C11.7959 46.3662 11.4492 46.2393 11.1025 46.1074C10.7559 45.9707 10.4458 45.7998 10.1724 45.5947C9.89893 45.3896 9.67676 45.1406 9.50586 44.8477C9.33496 44.5498 9.24951 44.1812 9.24951 43.7417C9.24951 43.3511 9.33252 43.0044 9.49854 42.7017C9.66455 42.394 9.88184 42.1353 10.1504 41.9253C10.4189 41.7153 10.7314 41.5566 11.0879 41.4492C11.4443 41.3369 11.8105 41.2808 12.1865 41.2808C12.6504 41.2808 13.0776 41.376 13.4683 41.5664C13.8638 41.7568 14.1714 42.0474 14.3911 42.438V41.4419H15.2773V44.1738H14.3911C14.3911 43.8857 14.3301 43.6172 14.208 43.3682C14.0908 43.1143 13.9297 42.8994 13.7246 42.7236C13.5195 42.543 13.2852 42.4014 13.0215 42.2988C12.7578 42.1914 12.4795 42.1377 12.1865 42.1377C11.9277 42.1377 11.6812 42.167 11.4468 42.2256C11.2124 42.2842 11.0073 42.3794 10.8315 42.5112C10.6558 42.6382 10.5142 42.8042 10.4067 43.0093C10.3042 43.2144 10.2529 43.4585 10.2529 43.7417C10.2529 43.9907 10.314 44.2031 10.436 44.3789C10.563 44.5547 10.7314 44.7109 10.9414 44.8477C11.1514 44.9795 11.3931 45.1016 11.6665 45.2139C11.9448 45.3213 12.228 45.4312 12.5161 45.5435C12.8774 45.6704 13.2363 45.812 13.5928 45.9683C13.9492 46.1245 14.269 46.3125 14.5522 46.5322C14.8354 46.752 15.0674 47.0229 15.248 47.3452C15.4287 47.6626 15.519 48.0508 15.519 48.5098ZM21.2173 42.8115H19.855V41.4419H21.2173V42.8115ZM22.5796 51H18.4854V50.1431H20.0308V45.0308H18.4854V44.1738H21.0415V50.1431H22.5796V51ZM31.7788 50.9268C31.7788 51.3955 31.6982 51.813 31.5371 52.1792C31.376 52.5454 31.1489 52.8555 30.856 53.1094C30.5679 53.3633 30.2261 53.5562 29.8306 53.688C29.4399 53.8247 29.0029 53.8931 28.5195 53.8931C27.8408 53.8931 27.2622 53.7661 26.7837 53.5122C26.3101 53.2583 25.8999 52.8921 25.5532 52.4136L26.2563 51.8716C26.4663 52.189 26.769 52.4551 27.1646 52.6699C27.5601 52.8848 28.0117 52.9922 28.5195 52.9922C29.2129 52.9922 29.7598 52.8164 30.1602 52.4648C30.5654 52.1182 30.7681 51.6152 30.7681 50.9561V50.2236C30.1724 50.751 29.4937 51.0146 28.7319 51.0146C27.6626 51.0146 26.8228 50.7095 26.2124 50.0991C25.6021 49.4888 25.2969 48.6538 25.2969 47.5942C25.2969 47.0767 25.375 46.6006 25.5312 46.166C25.6924 45.7266 25.9194 45.3481 26.2124 45.0308C26.5103 44.7085 26.8716 44.4595 27.2964 44.2837C27.7212 44.103 28.1997 44.0127 28.7319 44.0127C29.103 44.0127 29.4619 44.0786 29.8086 44.2104C30.1602 44.3374 30.48 44.5303 30.7681 44.7891V44.1738H31.7788V50.9268ZM30.7681 45.7632C30.48 45.4458 30.1626 45.2163 29.8159 45.0747C29.4741 44.9331 29.1128 44.8623 28.7319 44.8623C28.3315 44.8623 27.9775 44.9331 27.6699 45.0747C27.3672 45.2163 27.1157 45.4092 26.9155 45.6533C26.7153 45.8975 26.5615 46.188 26.4541 46.5249C26.3516 46.8569 26.3003 47.2134 26.3003 47.5942C26.3003 48.3755 26.5029 48.998 26.9082 49.4619C27.3135 49.9258 27.9214 50.1577 28.7319 50.1577C29.1128 50.1577 29.4741 50.0869 29.8159 49.9453C30.1626 49.7988 30.48 49.5645 30.7681 49.2422V45.7632ZM39.9673 51H38.9565V46.7886C38.9565 46.1782 38.8247 45.7046 38.561 45.3677C38.2974 45.0308 37.8701 44.8623 37.2793 44.8623C36.9082 44.8623 36.5713 44.9478 36.2686 45.1187C35.9707 45.2896 35.7168 45.519 35.5068 45.8071C35.2969 46.0903 35.1357 46.4175 35.0234 46.7886C34.916 47.1548 34.8623 47.5381 34.8623 47.9385V51H33.8589V44.1738H34.8623V45.8877C35.3457 44.6377 36.2075 44.0127 37.4478 44.0127C39.1274 44.0127 39.9673 44.938 39.9673 46.7886V51ZM41.6738 49.1543C41.6738 48.7246 41.7812 48.3657 41.9961 48.0776C42.2109 47.7847 42.4917 47.5552 42.8384 47.3892C43.1899 47.2183 43.5903 47.0962 44.0396 47.0229C44.4937 46.9448 44.9551 46.9058 45.4238 46.9058C45.6045 46.9058 45.7656 46.9082 45.9072 46.9131C46.0537 46.918 46.1904 46.9253 46.3174 46.9351C46.4492 46.9448 46.5811 46.957 46.7129 46.9717C46.8447 46.9863 46.9888 47.0034 47.145 47.0229V46.5322C47.145 46.2002 47.0718 45.9268 46.9253 45.7119C46.7837 45.4971 46.6079 45.3286 46.3979 45.2065C46.188 45.0796 45.9683 44.9917 45.7388 44.9429C45.5093 44.8892 45.314 44.8623 45.1528 44.8623C44.645 44.8623 44.1763 44.9307 43.7466 45.0674C43.3169 45.2041 42.9165 45.3872 42.5454 45.6167L42.0913 44.8623C42.5015 44.6133 42.9604 44.4106 43.4683 44.2544C43.981 44.0933 44.5425 44.0127 45.1528 44.0127C45.5239 44.0127 45.8877 44.0615 46.2441 44.1592C46.6055 44.252 46.9277 44.3984 47.2109 44.5986C47.499 44.7939 47.7285 45.0527 47.8994 45.375C48.0703 45.6973 48.1558 46.083 48.1558 46.5322V51H47.145V49.8574C46.9692 50.0771 46.769 50.27 46.5444 50.436C46.3247 50.6021 46.0928 50.7388 45.8486 50.8462C45.6045 50.9487 45.3604 51.0269 45.1162 51.0806C44.8721 51.1392 44.6401 51.1685 44.4204 51.1685C43.5171 51.1685 42.8335 50.9951 42.3696 50.6484C41.9058 50.3018 41.6738 49.8037 41.6738 49.1543ZM44.4204 50.3115C44.8403 50.3115 45.2163 50.2505 45.5483 50.1284C45.8853 50.0015 46.1709 49.8452 46.4053 49.6597C46.6396 49.4741 46.8203 49.2764 46.9473 49.0664C47.0791 48.8564 47.145 48.666 47.145 48.4951V47.8506C46.8179 47.8018 46.5029 47.7749 46.2002 47.77C45.9023 47.7651 45.6436 47.7627 45.4238 47.7627C45.0625 47.7627 44.7134 47.7871 44.3765 47.8359C44.0444 47.8848 43.7539 47.9653 43.5049 48.0776C43.2559 48.1851 43.0557 48.3267 42.9043 48.5024C42.7529 48.6782 42.6772 48.8955 42.6772 49.1543C42.6772 49.4424 42.8164 49.7085 43.0947 49.9526C43.3779 50.1919 43.8198 50.3115 44.4204 50.3115ZM55.3335 51H51.2393V50.1431H52.7847V42.2988H51.2393V41.4419H53.7954V50.1431H55.3335V51ZM8.03369 66H6.95703L6.05615 63.2681H2.27686L1.39062 66H0.313965L3.49268 56.4419H4.85498L8.03369 66ZM5.77051 62.3818L4.1665 57.4526L2.5625 62.3818H5.77051ZM15.4019 66H14.3911V61.7886C14.3911 61.1782 14.2593 60.7046 13.9956 60.3677C13.7319 60.0308 13.3047 59.8623 12.7139 59.8623C12.3428 59.8623 12.0059 59.9478 11.7031 60.1187C11.4053 60.2896 11.1514 60.519 10.9414 60.8071C10.7314 61.0903 10.5703 61.4175 10.458 61.7886C10.3506 62.1548 10.2969 62.5381 10.2969 62.9385V66H9.29346V59.1738H10.2969V60.8877C10.7803 59.6377 11.6421 59.0127 12.8823 59.0127C14.562 59.0127 15.4019 59.938 15.4019 61.7886V66ZM17.1084 64.1543C17.1084 63.7246 17.2158 63.3657 17.4307 63.0776C17.6455 62.7847 17.9263 62.5552 18.2729 62.3892C18.6245 62.2183 19.0249 62.0962 19.4741 62.0229C19.9282 61.9448 20.3896 61.9058 20.8584 61.9058C21.0391 61.9058 21.2002 61.9082 21.3418 61.9131C21.4883 61.918 21.625 61.9253 21.752 61.9351C21.8838 61.9448 22.0156 61.957 22.1475 61.9717C22.2793 61.9863 22.4233 62.0034 22.5796 62.0229V61.5322C22.5796 61.2002 22.5063 60.9268 22.3599 60.7119C22.2183 60.4971 22.0425 60.3286 21.8325 60.2065C21.6226 60.0796 21.4028 59.9917 21.1733 59.9429C20.9438 59.8892 20.7485 59.8623 20.5874 59.8623C20.0796 59.8623 19.6108 59.9307 19.1812 60.0674C18.7515 60.2041 18.3511 60.3872 17.98 60.6167L17.5259 59.8623C17.936 59.6133 18.395 59.4106 18.9028 59.2544C19.4155 59.0933 19.9771 59.0127 20.5874 59.0127C20.9585 59.0127 21.3223 59.0615 21.6787 59.1592C22.04 59.252 22.3623 59.3984 22.6455 59.5986C22.9336 59.7939 23.1631 60.0527 23.334 60.375C23.5049 60.6973 23.5903 61.083 23.5903 61.5322V66H22.5796V64.8574C22.4038 65.0771 22.2036 65.27 21.979 65.436C21.7593 65.6021 21.5273 65.7388 21.2832 65.8462C21.0391 65.9487 20.7949 66.0269 20.5508 66.0806C20.3066 66.1392 20.0747 66.1685 19.855 66.1685C18.9517 66.1685 18.2681 65.9951 17.8042 65.6484C17.3403 65.3018 17.1084 64.8037 17.1084 64.1543ZM19.855 65.3115C20.2749 65.3115 20.6509 65.2505 20.9829 65.1284C21.3198 65.0015 21.6055 64.8452 21.8398 64.6597C22.0742 64.4741 22.2549 64.2764 22.3818 64.0664C22.5137 63.8564 22.5796 63.666 22.5796 63.4951V62.8506C22.2524 62.8018 21.9375 62.7749 21.6348 62.77C21.3369 62.7651 21.0781 62.7627 20.8584 62.7627C20.4971 62.7627 20.1479 62.7871 19.811 62.8359C19.479 62.8848 19.1885 62.9653 18.9395 63.0776C18.6904 63.1851 18.4902 63.3267 18.3389 63.5024C18.1875 63.6782 18.1118 63.8955 18.1118 64.1543C18.1118 64.4424 18.251 64.7085 18.5293 64.9526C18.8125 65.1919 19.2544 65.3115 19.855 65.3115ZM30.7681 66H26.6738V65.1431H28.2192V57.2988H26.6738V56.4419H29.23V65.1431H30.7681V66ZM40.5386 59.1738L36.8472 67.7285C36.6567 68.207 36.3882 68.5195 36.0415 68.666C35.6948 68.8174 35.3115 68.8931 34.8916 68.8931C34.4229 68.8931 33.9541 68.8076 33.4854 68.6367L33.6831 67.7725C33.9126 67.8701 34.1372 67.9385 34.3569 67.9775C34.5767 68.0215 34.7549 68.0435 34.8916 68.0435C35.2236 68.0435 35.4507 67.9629 35.5728 67.8018C35.6997 67.6406 35.8096 67.4502 35.9023 67.2305L36.3198 66.1978L33.2729 59.1738H34.4595L36.9204 65.1431L39.3374 59.1738H40.5386ZM48.3315 64.1104C48.3315 64.5107 48.2314 64.8428 48.0312 65.1064C47.8311 65.3701 47.5723 65.5801 47.2549 65.7363C46.9424 65.8926 46.5908 66.0024 46.2002 66.0659C45.8145 66.1343 45.436 66.1685 45.0649 66.1685C44.4448 66.1685 43.8271 66.0781 43.2119 65.8975C42.5967 65.7168 42.0645 65.48 41.6152 65.187L42.062 64.3228C42.5649 64.6401 43.0605 64.8843 43.5488 65.0552C44.0371 65.2261 44.5425 65.3115 45.0649 65.3115C46.5737 65.3115 47.3281 64.9209 47.3281 64.1396C47.3281 63.9492 47.2646 63.7954 47.1377 63.6782C47.0156 63.5562 46.8496 63.4585 46.6396 63.3853C46.4297 63.3071 46.188 63.2461 45.9146 63.2021C45.646 63.1582 45.3628 63.1167 45.0649 63.0776C44.6841 63.0239 44.3057 62.9604 43.9297 62.8872C43.5537 62.814 43.2095 62.7041 42.897 62.5576C42.5894 62.4111 42.3403 62.2158 42.1499 61.9717C41.9644 61.7275 41.8716 61.4053 41.8716 61.0049C41.8716 60.6631 41.957 60.3677 42.1279 60.1187C42.3037 59.8696 42.5356 59.6621 42.8237 59.4961C43.1167 59.3301 43.4585 59.208 43.8491 59.1299C44.2397 59.0518 44.645 59.0127 45.0649 59.0127C45.6655 59.0127 46.2026 59.0835 46.6763 59.2251C47.1499 59.3618 47.5771 59.5596 47.958 59.8184L47.5552 60.6021C47.1646 60.3286 46.769 60.1382 46.3687 60.0308C45.9683 59.9185 45.5337 59.8623 45.0649 59.8623C44.855 59.8623 44.6206 59.8818 44.3618 59.9209C44.1079 59.9551 43.8711 60.0186 43.6514 60.1113C43.4316 60.1992 43.2461 60.3164 43.0947 60.4629C42.9482 60.6045 42.875 60.7852 42.875 61.0049C42.875 61.1953 42.936 61.3491 43.0581 61.4663C43.1851 61.5786 43.3535 61.6738 43.5635 61.752C43.7734 61.8252 44.0127 61.8838 44.2812 61.9277C44.5547 61.9717 44.8403 62.0132 45.1382 62.0522C45.5093 62.106 45.8828 62.1694 46.2588 62.2427C46.6396 62.3159 46.9839 62.4233 47.2915 62.5649C47.604 62.7065 47.8555 62.8994 48.0459 63.1436C48.2363 63.3877 48.3315 63.71 48.3315 64.1104ZM50.8804 62.9385C50.9536 63.6611 51.2173 64.2373 51.6714 64.667C52.1255 65.0967 52.7163 65.3115 53.4438 65.3115C53.9565 65.3115 54.4131 65.2065 54.8135 64.9966C55.2139 64.7866 55.5142 64.5254 55.7144 64.2129L56.4175 64.6963C56.0757 65.1748 55.668 65.541 55.1943 65.7949C54.7207 66.0439 54.1372 66.1685 53.4438 66.1685C52.9165 66.1685 52.4331 66.0806 51.9937 65.9048C51.5542 65.729 51.1733 65.4849 50.8511 65.1724C50.5337 64.855 50.2871 64.479 50.1113 64.0444C49.9355 63.6099 49.8477 63.1265 49.8477 62.5942C49.8477 62.0767 49.9258 61.6006 50.082 61.166C50.2432 60.7266 50.4727 60.3481 50.7705 60.0308C51.0732 59.7085 51.4395 59.4595 51.8691 59.2837C52.2988 59.103 52.7798 59.0127 53.312 59.0127C53.8931 59.0127 54.4009 59.1104 54.8354 59.3057C55.27 59.501 55.6313 59.772 55.9194 60.1187C56.2124 60.4604 56.4272 60.8706 56.564 61.3491C56.7056 61.8276 56.7764 62.3574 56.7764 62.9385H50.8804ZM55.7144 62.0815C55.6021 61.3345 55.3311 60.7778 54.9014 60.4116C54.4717 60.0454 53.9419 59.8623 53.312 59.8623C52.9897 59.8623 52.6919 59.916 52.4185 60.0234C52.145 60.126 51.9033 60.2749 51.6934 60.4702C51.4834 60.6655 51.3076 60.9023 51.166 61.1807C51.0244 61.4541 50.9341 61.7544 50.895 62.0815H55.7144ZM64.5181 60.1333C64.1567 59.9526 63.7271 59.8623 63.229 59.8623C62.8188 59.8623 62.4526 59.9502 62.1304 60.126C61.8081 60.3018 61.5347 60.5337 61.3101 60.8218C61.0854 61.105 60.9121 61.4321 60.79 61.8032C60.6729 62.1694 60.6143 62.5479 60.6143 62.9385V65.1431H62.1597V66H58.0654V65.1431H59.6108V60.0308H58.0654V59.1738H60.6143V60.8877C61.0732 59.6377 61.9448 59.0127 63.229 59.0127C63.5757 59.0127 63.876 59.0347 64.1299 59.0786C64.3887 59.1226 64.6279 59.2007 64.8477 59.313L64.5181 60.1333Z" fill="#6BBBAE"/>
<path fill-rule="evenodd" clip-rule="evenodd" d="M47.9999 29.8793H44.4705C44.1001 29.8798 43.739 29.7634 43.4386 29.5467C43.1382 29.33 42.9139 29.024 42.7976 28.6723L40.9376 23.2176L39.0776 28.6723C38.9606 29.0235 38.7361 29.3291 38.4359 29.5457C38.1356 29.7623 37.7749 29.879 37.4046 29.8793H33.8788C33.0864 29.8793 32.3894 29.3499 32.1776 28.5876L29.4688 18.9452L26.7599 28.5876C26.6566 28.9592 26.4342 29.2868 26.127 29.5201C25.8198 29.7534 25.4445 29.8795 25.0588 29.8793H19.7646V26.4664H23.7176L27.7676 11.8758C27.8703 11.5034 28.0923 11.1751 28.3996 10.9411C28.7069 10.707 29.0825 10.5803 29.4688 10.5803C29.855 10.5803 30.2306 10.707 30.5379 10.9411C30.8452 11.1751 31.0672 11.5034 31.1699 11.8758L35.2199 26.4664H36.1341L39.2629 17.0852C39.381 16.7349 39.6061 16.4305 39.9064 16.2149C40.2067 15.9993 40.567 15.8833 40.9367 15.8833C41.3064 15.8833 41.6667 15.9993 41.967 16.2149C42.2673 16.4305 42.4924 16.7349 42.6105 17.0852L45.7411 26.4664H47.9999V29.8793Z" fill="#EEEEEE"/>
</svg>
