<svg width="40" height="40" viewBox="0 0 40 40" fill="none" xmlns="http://www.w3.org/2000/svg">
<circle cx="20" cy="20" r="20" fill="#6BBBAE"/>
<path d="M10.48 9.37329L6.70667 13.1466L10.9467 17.3866V21.16L12.84 23.04L20.3733 15.5066L18.4933 13.6133H14.72L10.48 9.37329ZM26.6667 12V14C28 14 29.1333 15.1066 29.1333 16.4666C29.1333 17.8266 28 18.9333 26.6667 18.9333V20.9333C29.6533 20.9333 32 23.3733 32 26.36V32H34V26.3466C34 23.3866 32.2933 20.8266 29.8 19.64C30.6267 18.8266 31.1333 17.7066 31.1333 16.4666C31.1333 14 29.1333 12 26.6667 12ZM19.9067 18.8L16.1333 22.5733L22.7333 29.1733L23.68 28.2266L26.5067 31.0533L29.3333 32L28.3867 29.1733L25.56 26.3466L26.5067 25.4L19.9067 18.8Z" fill="#EEEEEE"/>
</svg>
