<svg width="49" height="67" viewBox="0 0 49 67" fill="none" xmlns="http://www.w3.org/2000/svg">
<circle cx="26" cy="20" r="20" fill="#6BBBAE"/>
<path d="M7.51904 48.5098C7.51904 48.9102 7.43604 49.2739 7.27002 49.6011C7.104 49.9233 6.88184 50.2017 6.60352 50.436C6.3252 50.6704 6.00537 50.8511 5.64404 50.978C5.28271 51.105 4.90674 51.1685 4.51611 51.1685C3.979 51.1685 3.48584 51.0684 3.03662 50.8682C2.5874 50.668 2.23096 50.3726 1.96729 49.9819V51H1.11768V48.0923H1.96729C1.96729 48.4194 2.04297 48.7197 2.19434 48.9932C2.3457 49.2617 2.53857 49.4937 2.77295 49.689C3.00732 49.8843 3.27588 50.0381 3.57861 50.1504C3.88623 50.2578 4.19873 50.3115 4.51611 50.3115C4.79932 50.3115 5.06055 50.2725 5.2998 50.1943C5.53906 50.1113 5.74902 49.9966 5.92969 49.8501C6.11035 49.6987 6.25195 49.5156 6.35449 49.3008C6.46191 49.0859 6.51562 48.8418 6.51562 48.5684C6.51562 48.2607 6.44727 47.9971 6.31055 47.7773C6.17871 47.5576 5.99805 47.3696 5.76855 47.2134C5.54395 47.0571 5.29004 46.9253 5.00684 46.8179C4.72363 46.7056 4.43555 46.5957 4.14258 46.4883C3.7959 46.3662 3.44922 46.2393 3.10254 46.1074C2.75586 45.9707 2.4458 45.7998 2.17236 45.5947C1.89893 45.3896 1.67676 45.1406 1.50586 44.8477C1.33496 44.5498 1.24951 44.1812 1.24951 43.7417C1.24951 43.3511 1.33252 43.0044 1.49854 42.7017C1.66455 42.394 1.88184 42.1353 2.15039 41.9253C2.41895 41.7153 2.73145 41.5566 3.08789 41.4492C3.44434 41.3369 3.81055 41.2808 4.18652 41.2808C4.65039 41.2808 5.07764 41.376 5.46826 41.5664C5.86377 41.7568 6.17139 42.0474 6.39111 42.438V41.4419H7.27734V44.1738H6.39111C6.39111 43.8857 6.33008 43.6172 6.20801 43.3682C6.09082 43.1143 5.92969 42.8994 5.72461 42.7236C5.51953 42.543 5.28516 42.4014 5.02148 42.2988C4.75781 42.1914 4.47949 42.1377 4.18652 42.1377C3.92773 42.1377 3.68115 42.167 3.44678 42.2256C3.2124 42.2842 3.00732 42.3794 2.83154 42.5112C2.65576 42.6382 2.51416 42.8042 2.40674 43.0093C2.3042 43.2144 2.25293 43.4585 2.25293 43.7417C2.25293 43.9907 2.31396 44.2031 2.43604 44.3789C2.56299 44.5547 2.73145 44.7109 2.94141 44.8477C3.15137 44.9795 3.39307 45.1016 3.6665 45.2139C3.94482 45.3213 4.22803 45.4312 4.51611 45.5435C4.87744 45.6704 5.23633 45.812 5.59277 45.9683C5.94922 46.1245 6.26904 46.3125 6.55225 46.5322C6.83545 46.752 7.06738 47.0229 7.24805 47.3452C7.42871 47.6626 7.51904 48.0508 7.51904 48.5098ZM16.125 47.6089C16.125 48.1411 16.0396 48.6245 15.8687 49.0591C15.7026 49.4937 15.4609 49.8672 15.1436 50.1797C14.8311 50.4873 14.4551 50.729 14.0156 50.9048C13.5762 51.0806 13.0854 51.1685 12.5435 51.1685C12.0112 51.1685 11.5254 51.0806 11.0859 50.9048C10.6465 50.729 10.2681 50.4873 9.95068 50.1797C9.63818 49.8672 9.39648 49.4937 9.22559 49.0591C9.05957 48.6245 8.97656 48.1411 8.97656 47.6089C8.97656 47.0913 9.05957 46.6104 9.22559 46.166C9.39648 45.7168 9.63818 45.3359 9.95068 45.0234C10.2681 44.7061 10.6465 44.4595 11.0859 44.2837C11.5254 44.103 12.0112 44.0127 12.5435 44.0127C13.0854 44.0127 13.5762 44.103 14.0156 44.2837C14.4551 44.4595 14.8311 44.7061 15.1436 45.0234C15.4609 45.3359 15.7026 45.7168 15.8687 46.166C16.0396 46.6104 16.125 47.0913 16.125 47.6089ZM15.1216 47.6089C15.1216 47.2183 15.063 46.8594 14.9458 46.5322C14.8335 46.2002 14.665 45.9097 14.4404 45.6606C14.2158 45.4116 13.9424 45.2163 13.6201 45.0747C13.3027 44.9331 12.9438 44.8623 12.5435 44.8623C12.1431 44.8623 11.7817 44.9331 11.4595 45.0747C11.1421 45.2163 10.8735 45.4116 10.6538 45.6606C10.4341 45.9097 10.2656 46.2002 10.1484 46.5322C10.0361 46.8594 9.97998 47.2183 9.97998 47.6089C9.97998 47.9995 10.0361 48.3608 10.1484 48.6929C10.2656 49.02 10.4341 49.3032 10.6538 49.5425C10.8735 49.7817 11.1421 49.9697 11.4595 50.1064C11.7817 50.2432 12.1431 50.3115 12.5435 50.3115C12.9438 50.3115 13.3027 50.2432 13.6201 50.1064C13.9424 49.9697 14.2158 49.7817 14.4404 49.5425C14.665 49.3032 14.8335 49.02 14.9458 48.6929C15.063 48.3608 15.1216 47.9995 15.1216 47.6089ZM22.7681 51H18.6738V50.1431H20.2192V42.2988H18.6738V41.4419H21.23V50.1431H22.7681V51ZM31.9673 51H30.9565V50.3701C30.6685 50.6289 30.3511 50.8267 30.0044 50.9634C29.6626 51.1001 29.311 51.1685 28.9497 51.1685C28.4077 51.1685 27.9219 51.0806 27.4922 50.9048C27.0625 50.729 26.6987 50.4849 26.4009 50.1724C26.1079 49.855 25.8809 49.4766 25.7197 49.0371C25.5635 48.5977 25.4854 48.1167 25.4854 47.5942C25.4854 47.0767 25.5635 46.5981 25.7197 46.1587C25.8809 45.7144 26.1079 45.3359 26.4009 45.0234C26.6987 44.7061 27.0625 44.4595 27.4922 44.2837C27.9219 44.103 28.4077 44.0127 28.9497 44.0127C29.311 44.0127 29.6626 44.0786 30.0044 44.2104C30.3511 44.3374 30.6685 44.5303 30.9565 44.7891V42.2988H29.5942V41.4419H31.9673V51ZM30.9565 45.7632C30.6685 45.4458 30.3535 45.2163 30.0117 45.0747C29.6748 44.9331 29.3159 44.8623 28.9351 44.8623C28.5347 44.8623 28.1807 44.9331 27.873 45.0747C27.5703 45.2163 27.3164 45.4092 27.1113 45.6533C26.9062 45.8975 26.75 46.1855 26.6426 46.5176C26.54 46.8447 26.4888 47.2036 26.4888 47.5942C26.4888 47.9849 26.54 48.3462 26.6426 48.6782C26.75 49.0054 26.9062 49.291 27.1113 49.5352C27.3164 49.7793 27.5703 49.9722 27.873 50.1138C28.1807 50.2554 28.5347 50.3262 28.9351 50.3262C29.7065 50.3262 30.3804 50.021 30.9565 49.4106V45.7632ZM34.6919 47.9385C34.7651 48.6611 35.0288 49.2373 35.4829 49.667C35.937 50.0967 36.5278 50.3115 37.2554 50.3115C37.7681 50.3115 38.2246 50.2065 38.625 49.9966C39.0254 49.7866 39.3257 49.5254 39.5259 49.2129L40.229 49.6963C39.8872 50.1748 39.4795 50.541 39.0059 50.7949C38.5322 51.0439 37.9487 51.1685 37.2554 51.1685C36.728 51.1685 36.2446 51.0806 35.8052 50.9048C35.3657 50.729 34.9849 50.4849 34.6626 50.1724C34.3452 49.855 34.0986 49.479 33.9229 49.0444C33.7471 48.6099 33.6592 48.1265 33.6592 47.5942C33.6592 47.0767 33.7373 46.6006 33.8936 46.166C34.0547 45.7266 34.2842 45.3481 34.582 45.0308C34.8848 44.7085 35.251 44.4595 35.6807 44.2837C36.1104 44.103 36.5913 44.0127 37.1235 44.0127C37.7046 44.0127 38.2124 44.1104 38.647 44.3057C39.0815 44.501 39.4429 44.772 39.731 45.1187C40.0239 45.4604 40.2388 45.8706 40.3755 46.3491C40.5171 46.8276 40.5879 47.3574 40.5879 47.9385H34.6919ZM39.5259 47.0815C39.4136 46.3345 39.1426 45.7778 38.7129 45.4116C38.2832 45.0454 37.7534 44.8623 37.1235 44.8623C36.8013 44.8623 36.5034 44.916 36.23 45.0234C35.9565 45.126 35.7148 45.2749 35.5049 45.4702C35.2949 45.6655 35.1191 45.9023 34.9775 46.1807C34.8359 46.4541 34.7456 46.7544 34.7065 47.0815H39.5259ZM48.3296 45.1333C47.9683 44.9526 47.5386 44.8623 47.0405 44.8623C46.6304 44.8623 46.2642 44.9502 45.9419 45.126C45.6196 45.3018 45.3462 45.5337 45.1216 45.8218C44.897 46.105 44.7236 46.4321 44.6016 46.8032C44.4844 47.1694 44.4258 47.5479 44.4258 47.9385V50.1431H45.9712V51H41.877V50.1431H43.4224V45.0308H41.877V44.1738H44.4258V45.8877C44.8848 44.6377 45.7563 44.0127 47.0405 44.0127C47.3872 44.0127 47.6875 44.0347 47.9414 44.0786C48.2002 44.1226 48.4395 44.2007 48.6592 44.313L48.3296 45.1333ZM7.93652 61.8618C7.84863 62.2817 7.70703 62.7041 7.51172 63.1289C7.31641 63.5537 7.07471 63.9565 6.78662 64.3374L7.93652 65.4141L7.24805 66.1978L6.09814 65.0698C5.73682 65.3921 5.33643 65.6558 4.89697 65.8608C4.45752 66.0659 3.98145 66.1685 3.46875 66.1685C3.09766 66.1685 2.74609 66.1001 2.41406 65.9634C2.08691 65.8267 1.80127 65.6411 1.55713 65.4067C1.31299 65.1724 1.11768 64.8989 0.971191 64.5864C0.824707 64.269 0.751465 63.9248 0.751465 63.5537C0.751465 63.2461 0.785645 62.9653 0.854004 62.7114C0.91748 62.4526 1.00537 62.2207 1.11768 62.0156C1.23486 61.8105 1.37158 61.6274 1.52783 61.4663C1.68408 61.3003 1.85254 61.1465 2.0332 61.0049C1.73047 60.624 1.49609 60.248 1.33008 59.877C1.16406 59.501 1.08105 59.1226 1.08105 58.7417C1.08105 57.9897 1.29834 57.3916 1.73291 56.9473C2.17236 56.5029 2.75586 56.2808 3.4834 56.2808C3.81543 56.2808 4.12549 56.332 4.41357 56.4346C4.70654 56.5322 4.96045 56.6738 5.17529 56.8594C5.39014 57.0449 5.55615 57.2695 5.67334 57.5332C5.79541 57.7969 5.85645 58.0996 5.85645 58.4414C5.85645 58.8223 5.78076 59.147 5.62939 59.4155C5.47803 59.6841 5.2876 59.9209 5.05811 60.126C4.82861 60.3311 4.56738 60.5166 4.27441 60.6826C3.98633 60.8486 3.70312 61.022 3.4248 61.2026L6.06152 63.6782C6.2959 63.356 6.48633 63.019 6.63281 62.6675C6.78418 62.311 6.89893 61.9619 6.97705 61.6201L7.93652 61.8618ZM3.46875 65.2017C3.84961 65.2017 4.20361 65.1309 4.53076 64.9893C4.86279 64.8428 5.1582 64.6499 5.41699 64.4106L2.89746 61.9497L2.67773 61.7373C2.42383 61.957 2.21875 62.2109 2.0625 62.499C1.91113 62.7822 1.83545 63.1338 1.83545 63.5537C1.83545 64.0225 1.98682 64.4155 2.28955 64.7329C2.59717 65.0454 2.99023 65.2017 3.46875 65.2017ZM2.12109 58.7417C2.12109 58.9712 2.1626 59.2324 2.24561 59.5254C2.3335 59.8135 2.5166 60.1406 2.79492 60.5068C3.04395 60.3604 3.29053 60.2163 3.53467 60.0747C3.78369 59.9331 4.00098 59.7842 4.18652 59.6279C4.37695 59.4668 4.52832 59.2886 4.64062 59.0933C4.75781 58.8979 4.81641 58.6709 4.81641 58.4121C4.81641 58.0312 4.68945 57.731 4.43555 57.5112C4.18164 57.2915 3.86426 57.1816 3.4834 57.1816C3.27344 57.1816 3.08301 57.2256 2.91211 57.3135C2.74609 57.3965 2.60205 57.5112 2.47998 57.6577C2.35791 57.7993 2.26758 57.9653 2.20898 58.1558C2.15039 58.3462 2.12109 58.5415 2.12109 58.7417ZM22.7681 66H18.6738V65.1431H20.2192V57.2988H18.6738V56.4419H22.7681V57.2988H21.23V65.1431H22.7681V66ZM31.9526 60.1333C31.5913 59.9526 31.1616 59.8623 30.6636 59.8623C30.2534 59.8623 29.8872 59.9502 29.5649 60.126C29.2427 60.3018 28.9692 60.5337 28.7446 60.8218C28.52 61.105 28.3467 61.4321 28.2246 61.8032C28.1074 62.1694 28.0488 62.5479 28.0488 62.9385V65.1431H29.5942V66H25.5V65.1431H27.0454V60.0308H25.5V59.1738H28.0488V60.8877C28.5078 59.6377 29.3794 59.0127 30.6636 59.0127C31.0103 59.0127 31.3105 59.0347 31.5645 59.0786C31.8232 59.1226 32.0625 59.2007 32.2822 59.313L31.9526 60.1333ZM40.6904 62.6089C40.6904 63.1411 40.605 63.6245 40.4341 64.0591C40.2681 64.4937 40.0264 64.8672 39.709 65.1797C39.3965 65.4873 39.0205 65.729 38.5811 65.9048C38.1416 66.0806 37.6509 66.1685 37.1089 66.1685C36.5767 66.1685 36.0908 66.0806 35.6514 65.9048C35.2119 65.729 34.8335 65.4873 34.5161 65.1797C34.2036 64.8672 33.9619 64.4937 33.791 64.0591C33.625 63.6245 33.542 63.1411 33.542 62.6089C33.542 62.0913 33.625 61.6104 33.791 61.166C33.9619 60.7168 34.2036 60.3359 34.5161 60.0234C34.8335 59.7061 35.2119 59.4595 35.6514 59.2837C36.0908 59.103 36.5767 59.0127 37.1089 59.0127C37.6509 59.0127 38.1416 59.103 38.5811 59.2837C39.0205 59.4595 39.3965 59.7061 39.709 60.0234C40.0264 60.3359 40.2681 60.7168 40.4341 61.166C40.605 61.6104 40.6904 62.0913 40.6904 62.6089ZM39.687 62.6089C39.687 62.2183 39.6284 61.8594 39.5112 61.5322C39.3989 61.2002 39.2305 60.9097 39.0059 60.6606C38.7812 60.4116 38.5078 60.2163 38.1855 60.0747C37.8682 59.9331 37.5093 59.8623 37.1089 59.8623C36.7085 59.8623 36.3472 59.9331 36.0249 60.0747C35.7075 60.2163 35.439 60.4116 35.2192 60.6606C34.9995 60.9097 34.8311 61.2002 34.7139 61.5322C34.6016 61.8594 34.5454 62.2183 34.5454 62.6089C34.5454 62.9995 34.6016 63.3608 34.7139 63.6929C34.8311 64.02 34.9995 64.3032 35.2192 64.5425C35.439 64.7817 35.7075 64.9697 36.0249 65.1064C36.3472 65.2432 36.7085 65.3115 37.1089 65.3115C37.5093 65.3115 37.8682 65.2432 38.1855 65.1064C38.5078 64.9697 38.7812 64.7817 39.0059 64.5425C39.2305 64.3032 39.3989 64.02 39.5112 63.6929C39.6284 63.3608 39.687 62.9995 39.687 62.6089ZM48.3442 66H47.3335V61.7886C47.3335 61.1782 47.2017 60.7046 46.938 60.3677C46.6743 60.0308 46.2471 59.8623 45.6562 59.8623C45.2852 59.8623 44.9482 59.9478 44.6455 60.1187C44.3477 60.2896 44.0938 60.519 43.8838 60.8071C43.6738 61.0903 43.5127 61.4175 43.4004 61.7886C43.293 62.1548 43.2393 62.5381 43.2393 62.9385V66H42.2358V59.1738H43.2393V60.8877C43.7227 59.6377 44.5845 59.0127 45.8247 59.0127C47.5044 59.0127 48.3442 59.938 48.3442 61.7886V66Z" fill="#6BBBAE"/>
<path d="M16.48 9.37329L12.7067 13.1466L16.9467 17.3866V21.16L18.84 23.04L26.3733 15.5066L24.4933 13.6133H20.72L16.48 9.37329ZM32.6667 12V14C34 14 35.1333 15.1066 35.1333 16.4666C35.1333 17.8266 34 18.9333 32.6667 18.9333V20.9333C35.6533 20.9333 38 23.3733 38 26.36V32H40V26.3466C40 23.3866 38.2933 20.8266 35.8 19.64C36.6267 18.8266 37.1333 17.7066 37.1333 16.4666C37.1333 14 35.1333 12 32.6667 12ZM25.9067 18.8L22.1333 22.5733L28.7333 29.1733L29.68 28.2266L32.5067 31.0533L35.3333 32L34.3867 29.1733L31.56 26.3466L32.5067 25.4L25.9067 18.8Z" fill="#EEEEEE"/>
</svg>
