<svg width="33" height="32" viewBox="0 0 33 32" fill="none" xmlns="http://www.w3.org/2000/svg">
<g clip-path="url(#clip0)">
<path d="M16.3841 0C7.33658 0 0 7.3353 0 16.3841C0 23.623 4.69453 29.7646 11.2045 31.931C12.0233 32.0827 12.324 31.5756 12.324 31.1428C12.324 30.7521 12.3086 29.4615 12.3017 28.0925C7.74362 29.0835 6.78182 26.1594 6.78182 26.1594C6.03648 24.2656 4.96256 23.7619 4.96256 23.7619C3.4761 22.7451 5.07469 22.7661 5.07469 22.7661C6.71987 22.8815 7.58618 24.4544 7.58618 24.4544C9.04755 26.9591 11.4191 26.235 12.354 25.8163C12.5011 24.7575 12.9257 24.0346 13.3943 23.6255C9.75514 23.2113 5.9296 21.8063 5.9296 15.5284C5.9296 13.7396 6.5696 12.278 7.61766 11.1306C7.44755 10.718 6.88678 9.05165 7.77638 6.79475C7.77638 6.79475 9.15226 6.35443 12.2833 8.47424C13.5901 8.11123 14.9917 7.92922 16.3841 7.92294C17.7765 7.92922 19.1793 8.1111 20.4886 8.47424C23.6157 6.35456 24.9897 6.79488 24.9897 6.79488C25.8815 9.05152 25.3204 10.7181 25.1503 11.1306C26.2008 12.278 26.8365 13.7396 26.8365 15.5284C26.8365 21.8213 23.0036 23.2069 19.3553 23.6125C19.9429 24.121 20.4666 25.1181 20.4666 26.6467C20.4666 28.8388 20.4476 30.6031 20.4476 31.1428C20.4476 31.5789 20.7425 32.0897 21.573 31.9287C28.0794 29.76 32.768 23.6207 32.768 16.3843C32.768 7.3353 25.4325 0 16.3841 0ZM6.13645 23.3395C6.10035 23.4209 5.97222 23.4454 5.85562 23.3894C5.7367 23.3361 5.67002 23.2251 5.70842 23.1434C5.74374 23.0596 5.87213 23.0362 5.99066 23.0924C6.1097 23.1459 6.17754 23.2579 6.13645 23.3395ZM6.94234 24.0586C6.86426 24.1311 6.71142 24.0974 6.60774 23.983C6.50061 23.8688 6.48051 23.716 6.55974 23.6425C6.64038 23.57 6.78848 23.604 6.89587 23.7181C7.00314 23.8337 7.02387 23.9854 6.94234 24.0586ZM7.4953 24.9787C7.39482 25.0484 7.23072 24.983 7.12922 24.8374C7.02886 24.6917 7.02886 24.517 7.13139 24.447C7.23315 24.377 7.39482 24.4399 7.4976 24.5846C7.5977 24.7327 7.5977 24.9074 7.49517 24.9788L7.4953 24.9787ZM8.43021 26.0443C8.34048 26.1434 8.14912 26.1167 8.00909 25.9816C7.86586 25.8495 7.82605 25.6621 7.91616 25.563C8.00704 25.4637 8.19942 25.4916 8.34048 25.6257C8.48256 25.7576 8.52608 25.9464 8.43021 26.0443ZM9.63878 26.404C9.5991 26.5324 9.41478 26.5907 9.22931 26.5362C9.04397 26.48 8.92275 26.3297 8.96013 26.2001C8.99866 26.0708 9.18374 26.0101 9.37062 26.0685C9.55571 26.1243 9.67731 26.2735 9.63878 26.4041V26.404ZM11.014 26.5567C11.0186 26.6917 10.8613 26.8037 10.6665 26.8063C10.4707 26.8106 10.3121 26.7013 10.3099 26.5682C10.3099 26.4319 10.4637 26.3209 10.6597 26.3176C10.8545 26.3137 11.014 26.4223 11.014 26.5567ZM12.3651 26.5048C12.3884 26.6367 12.2531 26.7721 12.0595 26.8082C11.8694 26.8429 11.6933 26.7615 11.6691 26.6308C11.6456 26.4956 11.7834 26.3602 11.9732 26.3252C12.167 26.2916 12.3404 26.3708 12.3651 26.5048Z" fill="#EEEEEE"/>
</g>
<defs>
<clipPath id="clip0">
<rect width="32.768" height="32" fill="white"/>
</clipPath>
</defs>
</svg>
