<svg width="32" height="32" viewBox="0 0 32 32" fill="none" xmlns="http://www.w3.org/2000/svg">
<g clip-path="url(#clip0)">
<path d="M15.9115 0.00453683C15.9115 0.00453683 25.2898 -0.41632 30.262 9.01036H15.1135C15.1135 9.01036 12.2546 8.91822 9.81253 12.3864C9.11102 13.8421 8.35697 15.3416 9.20316 18.2968C7.98417 16.2316 2.73157 7.08563 2.73157 7.08563C2.73157 7.08563 6.43647 0.377206 15.9113 0.00453683H15.9115Z" fill="#EF3F36"/>
<path d="M29.7753 23.9351C29.7753 23.9351 25.4477 32.2701 14.8022 31.8579C16.1175 29.5823 22.3786 18.7394 22.3786 18.7394C22.3786 18.7394 23.8913 16.3104 22.1068 12.4608C21.1991 11.1235 20.2739 9.72487 17.2926 8.97941C19.691 8.95762 30.2358 8.97941 30.2358 8.97941C30.2358 8.97941 34.1861 15.5431 29.7753 23.9351Z" fill="#FCD900"/>
<path d="M2.11337 24.0009C2.11337 24.0009 -2.942 16.0868 2.7403 7.07227C4.0513 9.34788 10.3123 20.1908 10.3123 20.1908C10.3123 20.1908 11.6628 22.7163 15.8851 23.0932C17.4943 22.9749 19.1691 22.874 21.3089 20.6686C20.1292 22.7557 14.837 31.8755 14.837 31.8755C14.837 31.8755 7.17299 32.0158 2.11325 24.0009H2.11337Z" fill="#61BC5B"/>
<path d="M14.7979 31.9368L16.9287 23.045C16.9287 23.045 19.27 22.8607 21.2343 20.708C20.0153 22.8521 14.7979 31.9368 14.7979 31.9368Z" fill="#5AB055"/>
<path d="M8.7735 16.0692C8.7735 12.1495 11.9523 8.9707 15.872 8.9707C19.7917 8.9707 22.9705 12.1495 22.9705 16.0692C22.9705 19.989 19.7917 23.1677 15.872 23.1677C11.9523 23.1634 8.7735 19.989 8.7735 16.0692Z" fill="white"/>
<path d="M9.96155 16.0692C9.96155 12.8072 12.6055 10.1589 15.872 10.1589C19.134 10.1589 21.7822 12.8029 21.7822 16.0692C21.7822 19.3314 19.1385 21.9796 15.872 21.9796C12.6098 21.9796 9.96155 19.3314 9.96155 16.0692Z" fill="url(#paint0_linear)"/>
<path d="M30.2313 8.98389L21.4578 11.5576C21.4578 11.5576 20.1337 9.61518 17.2882 8.98389C19.7567 8.97069 30.2313 8.98389 30.2313 8.98389Z" fill="#EACA05"/>
<path d="M9.0322 17.9722C7.80002 15.8369 2.73157 7.08545 2.73157 7.08545L9.22943 13.5131C9.22943 13.5131 8.56291 14.8855 8.81293 16.8497L9.03208 17.9722H9.0322Z" fill="#DF3A32"/>
</g>
<defs>
<linearGradient id="paint0_linear" x1="15.8717" y1="10.2424" x2="15.8717" y2="21.6238" gradientUnits="userSpaceOnUse">
<stop stop-color="#86BBE5"/>
<stop offset="1" stop-color="#1072BA"/>
</linearGradient>
<clipPath id="clip0">
<rect width="31.8755" height="32" fill="white"/>
</clipPath>
</defs>
</svg>
