<svg width="32" height="32" viewBox="0 0 32 32" fill="none" xmlns="http://www.w3.org/2000/svg">
<mask id="mask0" mask-type="alpha" maskUnits="userSpaceOnUse" x="0" y="0" width="32" height="32">
<path d="M22.6036 31.5763C22.8572 31.6752 23.1285 31.7208 23.4006 31.7104C23.6726 31.6999 23.9396 31.6336 24.1849 31.5155L30.7475 28.3578C31.0855 28.195 31.3707 27.9402 31.5702 27.6225C31.7698 27.3049 31.8757 26.9374 31.8756 26.5623V5.15026C31.8756 4.77515 31.7698 4.40765 31.5702 4.09003C31.3706 3.77242 31.0855 3.5176 30.7475 3.35488L24.185 0.197007C23.8142 0.0185705 23.397 -0.0401812 22.9914 0.0288845C22.5857 0.0979502 22.2115 0.291417 21.9206 0.582507L9.35723 12.0444L3.88473 7.89038C3.63788 7.703 3.33322 7.60795 3.02361 7.62172C2.714 7.63548 2.41898 7.7572 2.18973 7.96576L0.434607 9.56238C-0.144143 10.0888 -0.144768 10.9993 0.433107 11.5265L5.17898 15.8563L0.433107 20.1859C-0.144768 20.7133 -0.144143 21.6236 0.434607 22.1501L2.18973 23.7466C2.41896 23.9552 2.71398 24.0769 3.02359 24.0907C3.3332 24.1045 3.63787 24.0095 3.88473 23.8221L9.35723 19.668L21.9206 31.1299C22.1148 31.3244 22.3474 31.4765 22.6036 31.5763ZM23.9116 8.62013L14.3789 15.8563L23.9116 23.0923V8.62013Z" fill="white"/>
</mask>
<g mask="url(#mask0)">
<path d="M30.767 3.36002L24.1992 0.197774C23.8283 0.0191932 23.411 -0.0396837 23.0052 0.0292912C22.5993 0.0982661 22.2249 0.291682 21.9338 0.582774L0.433341 20.1861C-0.144909 20.7135 -0.144159 21.6239 0.434841 22.1504L2.19109 23.7469C2.42053 23.9555 2.71572 24.0773 3.02551 24.0911C3.3353 24.1049 3.64015 24.0098 3.88722 23.8224L29.7787 4.1804C30.6473 3.52152 31.895 4.14102 31.895 5.23127V5.15502C31.895 4.77999 31.7891 4.41257 31.5895 4.09503C31.39 3.77749 31.1049 3.52272 30.767 3.36002Z" fill="#0065A9"/>
<path d="M30.7668 28.3519L24.1991 31.5142C23.8282 31.6927 23.4109 31.7516 23.0051 31.6826C22.5992 31.6136 22.2248 31.4202 21.9337 31.1292L0.433219 11.5258C-0.145031 10.9985 -0.144281 10.088 0.434719 9.56166L2.19097 7.96504C2.42042 7.75644 2.71563 7.63471 3.02542 7.62094C3.33521 7.60717 3.64005 7.70224 3.88709 7.88966L29.7786 27.5315C30.6472 28.1904 31.8948 27.5709 31.8948 26.4805V26.5569C31.8948 26.9319 31.789 27.2994 31.5894 27.6169C31.3899 27.9344 31.1047 28.1892 30.7668 28.3519Z" fill="#007ACC"/>
<path d="M24.1785 31.5169C23.8074 31.6953 23.3901 31.7541 22.9843 31.6851C22.5784 31.616 22.204 31.4226 21.9128 31.1315C22.648 31.8665 23.9051 31.3459 23.9051 30.3061V1.40924C23.9051 0.369487 22.648 -0.151138 21.9128 0.583987C22.204 0.292872 22.5784 0.0994065 22.9842 0.0303455C23.3901 -0.0387155 23.8074 0.0200401 24.1785 0.198487L30.7451 3.35636C31.0832 3.51896 31.3685 3.77374 31.5682 4.09137C31.7679 4.40899 31.8739 4.77655 31.8738 5.15174V26.5639C31.8738 27.3295 31.4351 28.0275 30.7451 28.3592L24.1785 31.517V31.5169Z" fill="#1F9CF0"/>
<path d="M22.6036 31.5759C22.8572 31.6747 23.1285 31.7204 23.4005 31.7099C23.6726 31.6995 23.9396 31.6332 24.1849 31.5151L30.7474 28.3572C31.0854 28.1945 31.3706 27.9397 31.5702 27.6221C31.7698 27.3045 31.8756 26.937 31.8756 26.5619V5.14985C31.8756 4.77474 31.7698 4.40724 31.5702 4.08963C31.3706 3.77202 31.0855 3.51719 30.7475 3.35448L24.1847 0.196479C23.8139 0.0180703 23.3968 -0.0406659 22.9912 0.0283992C22.5855 0.0974643 22.2114 0.290915 21.9205 0.581979L9.35723 12.044L3.88473 7.88998C3.63788 7.7026 3.33322 7.60754 3.02361 7.62131C2.714 7.63508 2.41898 7.7568 2.18973 7.96535L0.434607 9.56198C-0.144143 10.0884 -0.144768 10.9989 0.433107 11.5261L5.17898 15.8559L0.433107 20.1855C-0.144768 20.7129 -0.144143 21.6232 0.434607 22.1497L2.18973 23.7462C2.41896 23.9548 2.71398 24.0765 3.02359 24.0903C3.3332 24.1041 3.63787 24.0091 3.88473 23.8217L9.35723 19.6676L21.9205 31.1295C22.1148 31.324 22.3474 31.4761 22.6036 31.5759ZM23.9116 8.6196L14.3789 15.8559L23.9116 23.0919V8.6196Z" fill="url(#paint0_linear)" fill-opacity="0.25"/>
</g>
<defs>
<linearGradient id="paint0_linear" x1="15.9379" y1="0.000244152" x2="15.9379" y2="31.7114" gradientUnits="userSpaceOnUse">
<stop stop-color="white"/>
<stop offset="1" stop-color="white" stop-opacity="0"/>
</linearGradient>
</defs>
</svg>
