<svg width="22" height="32" viewBox="0 0 22 32" fill="none" xmlns="http://www.w3.org/2000/svg">
<g clip-path="url(#clip0)">
<path d="M5.33333 31.9999C8.27733 31.9999 10.6667 29.6106 10.6667 26.6666V21.3333H5.33333C2.38933 21.3333 0 23.7226 0 26.6666C0 29.6106 2.38933 31.9999 5.33333 31.9999Z" fill="#0ACF83"/>
<path d="M0 16.0001C0 13.0561 2.38933 10.6667 5.33333 10.6667H10.6667V21.3334H5.33333C2.38933 21.3334 0 18.9441 0 16.0001Z" fill="#A259FF"/>
<path d="M0 5.33333C0 2.38933 2.38933 0 5.33333 0H10.6667V10.6667H5.33333C2.38933 10.6667 0 8.27733 0 5.33333Z" fill="#F24E1E"/>
<path d="M10.6667 0H16C18.944 0 21.3334 2.38933 21.3334 5.33333C21.3334 8.27733 18.944 10.6667 16 10.6667H10.6667V0Z" fill="#FF7262"/>
<path d="M21.3334 16.0001C21.3334 18.9441 18.944 21.3334 16 21.3334C13.056 21.3334 10.6667 18.9441 10.6667 16.0001C10.6667 13.0561 13.056 10.6667 16 10.6667C18.944 10.6667 21.3334 13.0561 21.3334 16.0001Z" fill="#1ABCFE"/>
</g>
<defs>
<clipPath id="clip0">
<rect width="21.3333" height="32" fill="white"/>
</clipPath>
</defs>
</svg>
