<svg width="45" height="45" viewBox="0 0 45 45" fill="none" xmlns="http://www.w3.org/2000/svg">
<path d="M11.25 5.625V11.25H5.625V5.625H11.25ZM2.8125 2.8125V14.0625H14.0625V2.8125H2.8125Z" fill="#EEEEEE"/>
<path d="M25.3125 9.84375V15.4688H19.6875V9.84375H25.3125ZM16.875 7.03125V18.2812H28.125V7.03125H16.875Z" fill="#EEEEEE"/>
<path d="M11.25 22.5V28.125H5.625V22.5H11.25ZM2.8125 19.6875V30.9375H14.0625V19.6875H2.8125Z" fill="#EEEEEE"/>
<path d="M30.9375 14.0625V22.5H22.5V30.9375H14.0625V42.1875H42.1875V14.0625H30.9375ZM25.3125 25.3125H30.9375V30.9375H25.3125V25.3125ZM22.5 39.375H16.875V33.75H22.5V39.375ZM30.9375 39.375H25.3125V33.75H30.9375V39.375ZM39.375 39.375H33.75V33.75H39.375V39.375ZM39.375 30.9375H33.75V25.3125H39.375V30.9375ZM33.75 22.5V16.875H39.375V22.5H33.75Z" fill="#EEEEEE"/>
</svg>
