<svg width="45" height="50" viewBox="0 0 45 50" fill="none" xmlns="http://www.w3.org/2000/svg">
<g clip-path="url(#clip0)">
<path d="M39.9147 2.90304C39.9942 2.81756 40.0534 2.71287 40.0873 2.5978C40.1211 2.48272 40.1287 2.36063 40.1092 2.24181C40.0897 2.12298 40.0439 2.01089 39.9755 1.91498C39.9071 1.81907 39.8182 1.74214 39.7162 1.69067C38.1432 0.895927 36.3788 0.641682 34.6653 0.962852C32.9518 1.28402 31.3732 2.16486 30.1465 3.48438C27.7561 6.05822 26.9214 10.1005 28.0363 13.4801L11.7925 30.8584C10.8901 30.518 9.93954 30.3469 8.9827 30.3524C6.56986 30.3524 4.23021 31.3795 2.56487 33.1717C1.34243 34.4739 0.51618 36.1408 0.194399 37.954C-0.127382 39.7672 0.0703114 41.6421 0.761575 43.333C0.806886 43.4462 0.877551 43.5457 0.967332 43.6228C1.05711 43.6999 1.16325 43.7521 1.27636 43.7749C1.38948 43.7976 1.5061 43.7903 1.61592 43.7534C1.72574 43.7165 1.82538 43.6513 1.90606 43.5635L6.82043 38.2787C7.14421 37.9293 7.66647 37.8826 7.93676 38.1763L10.0582 40.5513C10.3665 40.8842 10.3524 41.3978 10.0272 41.7487L5.13116 47.0198C5.05159 47.1052 4.99237 47.2098 4.95851 47.3247C4.92465 47.4397 4.91713 47.5617 4.93659 47.6804C4.95605 47.7991 5.00192 47.9111 5.07033 48.0069C5.13874 48.1027 5.22768 48.1794 5.32965 48.2307C6.46885 48.8122 7.71486 49.1147 8.97707 49.1163C11.19 49.1163 13.2917 48.1644 14.8994 46.4355C17.2897 43.8632 18.1245 39.8209 17.0081 36.4413L33.2519 19.0615C34.1548 19.4017 35.1058 19.5729 36.0631 19.5675C38.476 19.5675 40.8156 18.5404 42.481 16.7482C43.7034 15.446 44.5297 13.7791 44.8514 11.9659C45.1732 10.1527 44.9755 8.27778 44.2843 6.58685C44.2389 6.47365 44.1683 6.37413 44.0785 6.29707C43.9887 6.22002 43.8826 6.1678 43.7695 6.14502C43.6564 6.12225 43.5397 6.12962 43.4299 6.16649C43.3201 6.20336 43.2205 6.26859 43.1398 6.35642L38.2254 11.6412C38.0736 11.7982 37.8699 11.8847 37.6587 11.8819C37.4475 11.8791 37.246 11.7871 37.0978 11.6261L34.9876 9.36853C34.9123 9.29121 34.8524 9.19843 34.8114 9.09575C34.7705 8.99307 34.7493 8.88259 34.7491 8.77094C34.749 8.6593 34.7699 8.54877 34.8107 8.44598C34.8514 8.34318 34.9111 8.25025 34.9862 8.17272L39.9147 2.90304V2.90304ZM33.991 10.4333L36.1011 12.6909C36.9444 13.5975 38.3887 13.602 39.2235 12.7044L43.3481 8.27062C43.6748 9.57333 43.6746 10.9452 43.3473 12.2478C43.0201 13.5503 42.3774 14.7375 41.4843 15.6894C40.0808 17.2 38.1072 18.0645 36.0645 18.0645C35.1031 18.0645 34.1923 17.8717 33.3575 17.4922C33.2285 17.4334 33.086 17.4172 32.9483 17.4456C32.8106 17.4741 32.6839 17.5459 32.5846 17.6518L15.6919 35.7244C15.5931 35.8302 15.5259 35.965 15.4991 36.1118C15.4722 36.2585 15.4869 36.4105 15.5413 36.5483C16.6717 39.4248 15.9833 43.1372 13.9041 45.3752C13.0082 46.3474 11.8803 47.0382 10.6429 47.3722C9.40564 47.7063 8.1064 47.6709 6.88659 47.2699L11.0267 42.8119C11.9009 41.8707 11.915 40.4113 11.0675 39.5016L8.94751 37.1266C8.12962 36.2455 6.67544 36.2998 5.82517 37.22L1.70053 41.6538C1.37381 40.3511 1.37409 38.9792 1.70133 37.6766C2.02857 36.3741 2.6712 35.1869 3.56436 34.235C4.96786 32.7244 6.9415 31.8599 8.98411 31.8599C9.94558 31.8599 10.8564 32.0527 11.6912 32.4322C11.8201 32.4914 11.9627 32.5079 12.1005 32.4794C12.2383 32.4509 12.3649 32.3789 12.464 32.2726L29.3567 14.1999C29.4556 14.0942 29.5227 13.9594 29.5496 13.8126C29.5764 13.6659 29.5617 13.5139 29.5074 13.3761C28.3769 10.4996 29.0653 6.78565 31.1445 4.54765C32.0401 3.5764 33.1674 2.88627 34.4038 2.55225C35.6403 2.21823 36.9386 2.25309 38.1578 2.65304L33.991 7.11246C33.7849 7.32916 33.6213 7.58759 33.5095 7.87267C33.3978 8.15774 33.3403 8.46377 33.3403 8.77288C33.3403 9.082 33.3978 9.38802 33.5095 9.6731C33.6213 9.95818 33.7849 10.2166 33.991 10.4333V10.4333Z" fill="#EEEEEE"/>
<path d="M41.1197 47.0196C40.9632 47.1807 40.7543 47.2704 40.5371 47.2698C40.3199 47.2693 40.1113 47.1785 39.9555 47.0166L25.836 31.9561C25.7015 31.8273 25.5259 31.7587 25.3455 31.7643C25.1651 31.7699 24.9935 31.8493 24.8662 31.9861C24.7388 32.1229 24.6653 32.3068 24.6609 32.4999C24.6564 32.6929 24.7213 32.8805 24.8422 33.0239L38.9603 48.0814C39.3826 48.5347 39.9429 48.7847 40.5397 48.7847C41.1366 48.7847 41.6969 48.5347 42.1277 48.0708L44.1393 45.8223C44.345 45.6051 44.5082 45.3464 44.6196 45.0612C44.731 44.776 44.7883 44.4699 44.7882 44.1608C44.788 43.8517 44.7305 43.5457 44.6188 43.2605C44.5072 42.9754 44.3437 42.7169 44.1379 42.4999L30.0606 27.4394C29.9279 27.3022 29.7501 27.2263 29.5655 27.2281C29.381 27.2298 29.2044 27.309 29.0739 27.4486C28.9434 27.5882 28.8694 27.7771 28.8678 27.9745C28.8662 28.172 28.9372 28.3622 29.0654 28.5042L43.1412 43.5632C43.4636 43.9096 43.4636 44.4126 43.1314 44.7711L41.1197 47.0196V47.0196Z" fill="#EEEEEE"/>
<path d="M8.24169 5.59923L4.01851 1.08107C3.88651 0.939901 3.70751 0.860596 3.52087 0.860596C3.33424 0.860596 3.15524 0.939901 3.02324 1.08107L0.207791 4.09318C0.0758366 4.23439 0.00170898 4.42589 0.00170898 4.62557C0.00170898 4.82524 0.0758366 5.01674 0.207791 5.15796L4.43097 9.67612C4.56314 9.81676 4.7419 9.89583 4.92831 9.89611C5.11472 9.89639 5.29369 9.81786 5.42623 9.67762L6.33562 8.70321L17.0991 20.2185C17.1639 20.2905 17.2415 20.348 17.3273 20.3876C17.4132 20.4272 17.5055 20.4481 17.599 20.4491C17.6924 20.4501 17.7851 20.4312 17.8717 20.3934C17.9582 20.3557 18.0369 20.2999 18.103 20.2293C18.1692 20.1587 18.2216 20.0747 18.2571 19.9822C18.2926 19.8897 18.3106 19.7906 18.3099 19.6906C18.3092 19.5906 18.2899 19.4918 18.2532 19.3999C18.2164 19.308 18.1629 19.2248 18.0958 19.1552L7.33089 7.63843L8.24028 6.66552C8.30592 6.59567 8.35803 6.51265 8.39364 6.42122C8.42924 6.32978 8.44764 6.23174 8.44777 6.13269C8.4479 6.03364 8.42976 5.93553 8.3944 5.84399C8.35904 5.75246 8.30714 5.66928 8.24169 5.59923V5.59923ZM4.9279 8.0797L1.69998 4.62632L3.52017 2.67899L6.74809 6.13237L4.9279 8.0797Z" fill="#EEEEEE"/>
</g>
<defs>
<clipPath id="clip0">
<rect width="45" height="48.6" fill="white" transform="translate(0 0.827637)"/>
</clipPath>
</defs>
</svg>
