<svg width="40" height="40" viewBox="0 0 40 40" fill="none" xmlns="http://www.w3.org/2000/svg">
<circle cx="20" cy="20" r="20" fill="#EEEEEE"/>
<g clip-path="url(#clip0)">
<path d="M31.82 20C31.7623 16.8118 29.129 14.273 25.9408 14.3278C25.6475 14.3278 25.34 14.3518 25.0385 14.3788C22.5193 14.75 20.8393 16.559 19.9093 17.9488C18.9605 16.559 17.2693 14.75 14.7695 14.3788C14.4707 14.3483 14.1706 14.3313 13.8703 14.3278C10.6835 14.2805 8.05852 16.8155 7.99927 20C8.05852 23.1838 10.6835 25.7188 13.8703 25.6723C14.171 25.6723 14.468 25.6483 14.7883 25.6093C17.3083 25.25 18.9875 23.441 19.9295 22.0513C20.8783 23.441 22.5583 25.25 25.0693 25.6213C25.3783 25.6483 25.6715 25.6723 25.979 25.6723C29.1508 25.703 31.7608 23.1725 31.8193 20H31.82ZM14.48 23.6023C14.2813 23.6413 14.051 23.6413 13.8523 23.6413C12.857 23.6633 11.8933 23.2907 11.1717 22.6049C10.45 21.9191 10.0289 20.9757 10.0003 19.9805C10.0313 18.985 10.4541 18.0421 11.1767 17.3567C11.8993 16.6713 12.8633 16.2989 13.859 16.3205C14.0593 16.3205 14.2813 16.3408 14.4883 16.3595C16.859 16.7113 18.3095 19.0318 18.8015 19.9805C18.3013 20.9308 16.8523 23.2813 14.4883 23.6023H14.48ZM20.9998 20C21.488 19.07 22.9408 16.73 25.3085 16.379C25.5118 16.34 25.7293 16.34 25.9295 16.34C26.4243 16.325 26.9171 16.4079 27.3798 16.584C27.8424 16.76 28.2657 17.0257 28.6254 17.3658C28.985 17.7058 29.274 18.1136 29.4756 18.5657C29.6772 19.0178 29.7876 19.5052 29.8003 20C29.7677 20.9952 29.3443 21.9375 28.6217 22.6227C27.8991 23.3078 26.9356 23.6805 25.94 23.66C25.7325 23.6572 25.5253 23.6442 25.319 23.621C22.9603 23.27 21.4993 20.93 21.011 20H20.9998ZM12.2113 20.5903H15.7505V19.43H12.2195V20.5903H12.2113ZM26.3398 20.5903H27.5308V19.43H26.3278V18.2383H25.199V19.4413H23.9998V20.5903H25.199V21.77H26.3518V20.6023L26.3398 20.5903ZM32 15.059C32 15.359 31.781 15.5698 31.469 15.5698C31.4013 15.5725 31.3337 15.5616 31.2702 15.5378C31.2068 15.5139 31.1487 15.4776 31.0995 15.431C31.0503 15.3844 31.0109 15.3284 30.9837 15.2663C30.9565 15.2042 30.942 15.1373 30.941 15.0695C30.941 14.7883 31.1803 14.5505 31.469 14.5505C31.781 14.5505 32 14.7695 32 15.0583V15.059ZM31.0903 15.059C31.0903 15.281 31.25 15.461 31.4885 15.461C31.7113 15.461 31.8718 15.281 31.8718 15.059C31.8718 14.84 31.712 14.66 31.4885 14.66C31.2508 14.6413 31.0903 14.8198 31.0903 15.059ZM31.391 15.32H31.289V14.801L31.4878 14.789C31.5778 14.789 31.6288 14.801 31.6715 14.8198C31.7105 14.84 31.7293 14.879 31.7293 14.93C31.7293 14.9878 31.6903 15.0313 31.6205 15.0388C31.6715 15.059 31.6903 15.1018 31.7105 15.1715L31.7375 15.3005H31.6205C31.6018 15.2803 31.6018 15.2293 31.5778 15.1715C31.559 15.1205 31.5388 15.1018 31.469 15.1018H31.4218L31.3978 15.32H31.391ZM31.4098 15.02H31.469C31.5388 15.02 31.5703 15.0118 31.5703 14.9488C31.5703 14.8978 31.5395 14.879 31.469 14.879H31.3978V15.02H31.4098Z" fill="#6BBBAE"/>
</g>
<defs>
<clipPath id="clip0">
<rect width="24" height="24" fill="white" transform="translate(8 8)"/>
</clipPath>
</defs>
</svg>
