<svg width="77" height="61" viewBox="0 0 77 61" fill="none" xmlns="http://www.w3.org/2000/svg">
<circle cx="40" cy="20" r="20" fill="#EEEEEE"/>
<path d="M11.0039 60H9.56836L8.36719 56.3574H3.32812L2.14648 60H0.710938L4.94922 47.2559H6.76562L11.0039 60ZM7.98633 55.1758L5.84766 48.6035L3.70898 55.1758H7.98633ZM20.8086 52.1777C20.3268 51.9368 19.7539 51.8164 19.0898 51.8164C18.543 51.8164 18.0547 51.9336 17.625 52.168C17.1953 52.4023 16.8307 52.7116 16.5312 53.0957C16.2318 53.4733 16.0007 53.9095 15.8379 54.4043C15.6816 54.8926 15.6035 55.3971 15.6035 55.918V58.8574H17.6641V60H12.2051V58.8574H14.2656V52.041H12.2051V50.8984H15.6035V53.1836C16.2155 51.5169 17.3776 50.6836 19.0898 50.6836C19.5521 50.6836 19.9525 50.7129 20.291 50.7715C20.6361 50.8301 20.9551 50.9342 21.248 51.084L20.8086 52.1777ZM31.7461 60H30.3984V59.1602C30.0143 59.5052 29.5911 59.7689 29.1289 59.9512C28.6732 60.1335 28.2044 60.2246 27.7227 60.2246C27 60.2246 26.3522 60.1074 25.7793 59.873C25.2064 59.6387 24.7214 59.3132 24.3242 58.8965C23.9336 58.4733 23.6309 57.9688 23.416 57.3828C23.2077 56.7969 23.1035 56.1556 23.1035 55.459C23.1035 54.7689 23.2077 54.1309 23.416 53.5449C23.6309 52.9525 23.9336 52.4479 24.3242 52.0312C24.7214 51.6081 25.2064 51.2793 25.7793 51.0449C26.3522 50.804 27 50.6836 27.7227 50.6836C28.2044 50.6836 28.6732 50.7715 29.1289 50.9473C29.5911 51.1165 30.0143 51.3737 30.3984 51.7188V48.3984H28.582V47.2559H31.7461V60ZM30.3984 53.0176C30.0143 52.5944 29.5944 52.2884 29.1387 52.0996C28.6895 51.9108 28.2109 51.8164 27.7031 51.8164C27.1693 51.8164 26.6973 51.9108 26.2871 52.0996C25.8835 52.2884 25.5449 52.5456 25.2715 52.8711C24.998 53.1966 24.7897 53.5807 24.6465 54.0234C24.5098 54.4596 24.4414 54.9382 24.4414 55.459C24.4414 55.9798 24.5098 56.4616 24.6465 56.9043C24.7897 57.3405 24.998 57.7214 25.2715 58.0469C25.5449 58.3724 25.8835 58.6296 26.2871 58.8184C26.6973 59.0072 27.1693 59.1016 27.7031 59.1016C28.7318 59.1016 29.6302 58.6947 30.3984 57.8809V53.0176ZM34.5195 50.8984H35.8574V56.5234C35.8574 57.3372 36.0332 57.9688 36.3848 58.418C36.7428 58.8607 37.3158 59.082 38.1035 59.082C38.5983 59.082 39.0443 58.9681 39.4414 58.7402C39.8385 58.5124 40.1771 58.2096 40.457 57.832C40.737 57.4479 40.9486 57.0117 41.0918 56.5234C41.2415 56.0286 41.3164 55.5143 41.3164 54.9805V50.8984H42.6641V60H41.3164V57.7246C40.6784 59.3913 39.5326 60.2246 37.8789 60.2246C35.6393 60.2246 34.5195 58.9909 34.5195 56.5234V50.8984ZM50.418 49.082H48.6016V47.2559H50.418V49.082ZM52.2344 60H46.7754V58.8574H48.8359V52.041H46.7754V50.8984H50.1836V58.8574H52.2344V60ZM64.5 60H63.1523V54.3848C63.1523 53.571 62.9766 52.9395 62.625 52.4902C62.2734 52.041 61.7038 51.8164 60.916 51.8164C60.4212 51.8164 59.972 51.9303 59.5684 52.1582C59.1712 52.3861 58.8327 52.6921 58.5527 53.0762C58.2728 53.4538 58.0579 53.89 57.9082 54.3848C57.765 54.873 57.6934 55.3841 57.6934 55.918V60H56.3555V50.8984H57.6934V53.1836C58.3379 51.5169 59.487 50.6836 61.1406 50.6836C63.3802 50.6836 64.5 51.9173 64.5 54.3848V60ZM76.1309 55.4785C76.1309 56.1882 76.0169 56.8327 75.7891 57.4121C75.5677 57.9915 75.2454 58.4896 74.8223 58.9062C74.4056 59.3164 73.9043 59.6387 73.3184 59.873C72.7324 60.1074 72.0781 60.2246 71.3555 60.2246C70.6458 60.2246 69.998 60.1074 69.4121 59.873C68.8262 59.6387 68.3216 59.3164 67.8984 58.9062C67.4818 58.4896 67.1595 57.9915 66.9316 57.4121C66.7103 56.8327 66.5996 56.1882 66.5996 55.4785C66.5996 54.7884 66.7103 54.1471 66.9316 53.5547C67.1595 52.9557 67.4818 52.4479 67.8984 52.0312C68.3216 51.6081 68.8262 51.2793 69.4121 51.0449C69.998 50.804 70.6458 50.6836 71.3555 50.6836C72.0781 50.6836 72.7324 50.804 73.3184 51.0449C73.9043 51.2793 74.4056 51.6081 74.8223 52.0312C75.2454 52.4479 75.5677 52.9557 75.7891 53.5547C76.0169 54.1471 76.1309 54.7884 76.1309 55.4785ZM74.793 55.4785C74.793 54.9577 74.7148 54.4792 74.5586 54.043C74.4089 53.6003 74.1842 53.2129 73.8848 52.8809C73.5853 52.5488 73.2207 52.2884 72.791 52.0996C72.3678 51.9108 71.8893 51.8164 71.3555 51.8164C70.8216 51.8164 70.3398 51.9108 69.9102 52.0996C69.487 52.2884 69.1289 52.5488 68.8359 52.8809C68.543 53.2129 68.3184 53.6003 68.1621 54.043C68.0124 54.4792 67.9375 54.9577 67.9375 55.4785C67.9375 55.9993 68.0124 56.4811 68.1621 56.9238C68.3184 57.36 68.543 57.7376 68.8359 58.0566C69.1289 58.3757 69.487 58.6263 69.9102 58.8086C70.3398 58.9909 70.8216 59.082 71.3555 59.082C71.8893 59.082 72.3678 58.9909 72.791 58.8086C73.2207 58.6263 73.5853 58.3757 73.8848 58.0566C74.1842 57.7376 74.4089 57.36 74.5586 56.9238C74.7148 56.4811 74.793 55.9993 74.793 55.4785Z" fill="#EEEEEE"/>
<g clip-path="url(#clip0)">
<path d="M51.82 20C51.7623 16.8118 49.129 14.273 45.9408 14.3278C45.6475 14.3278 45.34 14.3518 45.0385 14.3788C42.5193 14.75 40.8393 16.559 39.9093 17.9488C38.9605 16.559 37.2693 14.75 34.7695 14.3788C34.4707 14.3483 34.1706 14.3313 33.8703 14.3278C30.6835 14.2805 28.0585 16.8155 27.9993 20C28.0585 23.1838 30.6835 25.7188 33.8703 25.6723C34.171 25.6723 34.468 25.6483 34.7883 25.6093C37.3083 25.25 38.9875 23.441 39.9295 22.0513C40.8783 23.441 42.5583 25.25 45.0693 25.6213C45.3783 25.6483 45.6715 25.6723 45.979 25.6723C49.1508 25.703 51.7608 23.1725 51.8193 20H51.82ZM34.48 23.6023C34.2813 23.6413 34.051 23.6413 33.8523 23.6413C32.857 23.6633 31.8933 23.2907 31.1717 22.6049C30.45 21.9191 30.0289 20.9757 30.0003 19.9805C30.0313 18.985 30.4541 18.0421 31.1767 17.3567C31.8993 16.6713 32.8633 16.2989 33.859 16.3205C34.0593 16.3205 34.2813 16.3408 34.4883 16.3595C36.859 16.7113 38.3095 19.0318 38.8015 19.9805C38.3013 20.9308 36.8523 23.2813 34.4883 23.6023H34.48ZM40.9998 20C41.488 19.07 42.9408 16.73 45.3085 16.379C45.5118 16.34 45.7293 16.34 45.9295 16.34C46.4243 16.325 46.9171 16.4079 47.3798 16.584C47.8424 16.76 48.2657 17.0257 48.6254 17.3658C48.985 17.7058 49.274 18.1136 49.4756 18.5657C49.6772 19.0178 49.7876 19.5052 49.8003 20C49.7677 20.9952 49.3443 21.9375 48.6217 22.6227C47.8991 23.3078 46.9356 23.6805 45.94 23.66C45.7325 23.6572 45.5253 23.6442 45.319 23.621C42.9603 23.27 41.4993 20.93 41.011 20H40.9998ZM32.2113 20.5903H35.7505V19.43H32.2195V20.5903H32.2113ZM46.3398 20.5903H47.5308V19.43H46.3278V18.2383H45.199V19.4413H43.9998V20.5903H45.199V21.77H46.3518V20.6023L46.3398 20.5903ZM52 15.059C52 15.359 51.781 15.5698 51.469 15.5698C51.4013 15.5725 51.3337 15.5616 51.2702 15.5378C51.2068 15.5139 51.1487 15.4776 51.0995 15.431C51.0503 15.3844 51.0109 15.3284 50.9837 15.2663C50.9565 15.2042 50.942 15.1373 50.941 15.0695C50.941 14.7883 51.1803 14.5505 51.469 14.5505C51.781 14.5505 52 14.7695 52 15.0583V15.059ZM51.0903 15.059C51.0903 15.281 51.25 15.461 51.4885 15.461C51.7113 15.461 51.8718 15.281 51.8718 15.059C51.8718 14.84 51.712 14.66 51.4885 14.66C51.2508 14.6413 51.0903 14.8198 51.0903 15.059ZM51.391 15.32H51.289V14.801L51.4878 14.789C51.5778 14.789 51.6288 14.801 51.6715 14.8198C51.7105 14.84 51.7293 14.879 51.7293 14.93C51.7293 14.9878 51.6903 15.0313 51.6205 15.0388C51.6715 15.059 51.6903 15.1018 51.7105 15.1715L51.7375 15.3005H51.6205C51.6018 15.2803 51.6018 15.2293 51.5778 15.1715C51.559 15.1205 51.5388 15.1018 51.469 15.1018H51.4218L51.3978 15.32H51.391ZM51.4098 15.02H51.469C51.5388 15.02 51.5703 15.0118 51.5703 14.9488C51.5703 14.8978 51.5395 14.879 51.469 14.879H51.3978V15.02H51.4098Z" fill="#6BBBAE"/>
</g>
<defs>
<clipPath id="clip0">
<rect width="24" height="24" fill="white" transform="translate(28 8)"/>
</clipPath>
</defs>
</svg>
