<svg width="40" height="60" viewBox="0 0 40 60" fill="none" xmlns="http://www.w3.org/2000/svg">
<circle cx="20" cy="20" r="20" fill="#EEEEEE"/>
<path d="M12.7051 56.3574C12.7051 57.5749 12.3112 58.4863 11.5234 59.0918C10.7357 59.6973 9.61589 60 8.16406 60H4.10156V47.2559H7.93945C8.47331 47.2559 8.9974 47.3014 9.51172 47.3926C10.026 47.4772 10.485 47.64 10.8887 47.8809C11.2988 48.1217 11.6309 48.457 11.8848 48.8867C12.1387 49.3099 12.2656 49.8665 12.2656 50.5566C12.2656 51.8783 11.6048 52.7799 10.2832 53.2617C11.8978 53.7565 12.7051 54.7884 12.7051 56.3574ZM10.9277 50.5566C10.9277 50.1074 10.8333 49.7396 10.6445 49.4531C10.4557 49.1667 10.2148 48.9486 9.92188 48.7988C9.62891 48.6426 9.30664 48.5384 8.95508 48.4863C8.60352 48.4277 8.26497 48.3984 7.93945 48.3984H5.43945V52.7246H7.93945C8.30404 52.7246 8.66211 52.6986 9.01367 52.6465C9.36523 52.5879 9.68099 52.4805 9.96094 52.3242C10.2409 52.1615 10.472 51.9401 10.6543 51.6602C10.8366 51.3802 10.9277 51.0124 10.9277 50.5566ZM11.3672 56.3574C11.3672 55.4785 11.0807 54.8405 10.5078 54.4434C9.94141 54.0397 9.16016 53.8379 8.16406 53.8379H5.43945V58.8574H8.16406C9.16016 58.8574 9.94141 58.6491 10.5078 58.2324C11.0807 57.8092 11.3672 57.1842 11.3672 56.3574ZM23.1641 60H15.0195V47.2559H16.3574V58.8574H23.1641V60ZM34.082 60H25.9375V47.2559H34.082V48.3984H27.2754V52.959H32.2949V54.1016H27.2754V58.8574H34.082V60Z" fill="#EEEEEE"/>
<g clip-path="url(#clip0)">
<path d="M21.7101 20.1882L26.0518 15.3448L19.2088 8V17.672L15.1723 13.6355L13.7001 15.1077L18.7656 20.189L13.7001 25.2703L15.1723 26.7425L19.2088 22.706L19.3363 32.0007L26.2993 25.0333L21.7101 20.1882ZM23.6256 15.3605L21.2826 17.7035L21.2668 13.0025L23.6256 15.3605ZM21.2826 22.6737L23.6256 25.0168L21.2668 27.3755L21.2826 22.6737Z" fill="#6BBBAE"/>
</g>
<defs>
<clipPath id="clip0">
<rect width="24" height="24" fill="white" transform="translate(8 8)"/>
</clipPath>
</defs>
</svg>
