<svg width="40" height="40" viewBox="0 0 40 40" fill="none" xmlns="http://www.w3.org/2000/svg">
<circle cx="20" cy="20" r="20" fill="#EEEEEE"/>
<g clip-path="url(#clip0)">
<path d="M30.9989 15.3624C30.9987 14.9462 30.9098 14.5785 30.73 14.263C30.5534 13.9525 30.2888 13.6925 29.934 13.4868C27.0052 11.7964 24.0735 10.1111 21.1457 8.41903C20.3564 7.96296 19.591 7.97955 18.8075 8.44223C17.6418 9.13042 11.8053 12.4775 10.0661 13.4858C9.34985 13.9009 9.00129 14.5361 9.00112 15.3617C9 18.7612 9.00112 22.1605 9 25.5601C9.00017 25.9671 9.08534 26.3277 9.25721 26.6386C9.4339 26.9583 9.70211 27.2256 10.0651 27.436C11.8044 28.4443 17.6417 31.7911 18.8072 32.4795C19.591 32.9424 20.3564 32.9589 21.146 32.5027C24.0739 30.8105 27.0057 29.1253 29.935 27.4349C30.298 27.2246 30.5662 26.9572 30.7429 26.6378C30.9145 26.3269 30.9998 25.9663 31 25.5592C31 25.5592 31 18.762 30.9989 15.3624Z" fill="#A9B9CB"/>
<path d="M21.1259 8.44115C20.3378 7.9862 19.5738 8.00279 18.7915 8.46427C17.6277 9.15065 11.8007 12.4891 10.0643 13.4948C9.34925 13.9088 9.00129 14.5423 9.00112 15.3657C9 18.7564 9.00112 22.147 9 25.5377C9.00017 25.9437 9.08516 26.3033 9.25678 26.6134C9.43321 26.9323 9.70099 27.1989 10.0634 27.4087C10.6404 27.7423 11.2179 28.0752 11.7958 28.4073L27.874 12.3291C25.6244 11.0336 23.3741 9.73924 21.1259 8.44115Z" fill="#6BBBAE"/>
<path d="M22.2735 18.9113L25.6972 18.9355C25.6972 17.509 24.2533 14.0156 20.1136 14.0156C17.4761 14.0156 13.9303 15.6924 13.9303 20.5134C13.9303 25.3342 17.4062 26.9062 20.1136 26.9062C24.4979 26.9062 25.5457 23.8725 25.5457 22.158L22.2795 21.9713C22.2795 21.9713 22.3669 23.9543 20.0961 23.9543C18.0001 23.9543 17.6504 21.3867 17.6504 20.5134C17.6504 19.1859 18.1224 17.0549 20.0961 17.0549C22.07 17.0549 22.2735 18.9113 22.2735 18.9113Z" fill="white"/>
</g>
<defs>
<clipPath id="clip0">
<rect width="22" height="24.75" fill="white" transform="translate(9 8)"/>
</clipPath>
</defs>
</svg>
