<svg width="50" height="50" viewBox="0 0 50 50" fill="none" xmlns="http://www.w3.org/2000/svg">
<circle cx="25" cy="25" r="25" fill="#6BBBAE"/>
<path d="M24.5057 17.1189C26.6891 17.1189 28.7415 18.0844 30.2487 19.5951V19.5999C30.2487 18.8749 30.7368 18.3284 31.4142 18.3284H31.5868C32.6476 18.3284 32.8642 19.3308 32.8642 19.6487L32.8702 30.9288C32.7952 31.6681 33.6321 32.0491 34.0952 31.5752C35.906 29.7133 38.0739 22.0059 32.969 17.5391C28.2117 13.3759 21.8294 14.0617 18.4341 16.4022C14.8256 18.8916 12.5161 24.4 14.7602 29.574C17.2055 35.217 24.2021 36.898 28.3605 35.2218C30.4666 34.3706 31.4392 37.2171 29.2522 38.1468C25.9474 39.5564 16.7495 39.4135 12.4541 31.9705C9.55049 26.9453 9.70526 18.1022 17.4043 13.5212C23.2937 10.0175 31.0594 10.9878 35.7405 15.8772C40.6347 20.9892 40.3502 30.5609 35.575 34.2836C33.4131 35.9742 30.1987 34.3277 30.2201 31.8657L30.1975 31.0586C28.6915 32.5538 26.6879 33.4253 24.5045 33.4253C20.1889 33.4253 16.3935 29.6288 16.3935 25.3155C16.3935 20.9595 20.1901 17.1189 24.5057 17.1189ZM29.9356 25.0036C29.7725 21.8452 27.4284 19.9452 24.5973 19.9452H24.4902C21.2222 19.9452 19.4091 22.5155 19.4091 25.4334C19.4091 28.7037 21.602 30.7681 24.4759 30.7681C27.6819 30.7681 29.7903 28.4192 29.9427 25.6417L29.9356 25.0036Z" fill="#EEEEEE"/>
</svg>
