<svg width="50" height="50" viewBox="0 0 50 50" fill="none" xmlns="http://www.w3.org/2000/svg">
<circle cx="25" cy="25" r="25" fill="#6BBBAE"/>
<path d="M24.9999 11.4287C16.9642 11.4287 10.7142 17.6787 10.7142 25.7144C10.7142 35.0894 19.1964 39.1073 20.5357 39.1073C21.4285 39.1073 21.4285 38.6609 21.4285 38.2144V35.9823C18.3035 36.8751 16.9642 35.0894 16.5178 33.7501C16.5178 33.7501 16.5178 33.3037 15.6249 32.4109C15.1785 31.9644 13.3928 31.0716 15.1785 31.0716C16.5178 31.0716 17.4107 32.8573 17.4107 32.8573C18.7499 34.643 20.5357 34.1966 21.4285 33.7501C21.4285 32.8573 22.3214 31.9644 22.3214 31.9644C18.7499 31.518 16.0714 30.1787 16.0714 25.268C16.0714 23.4823 16.5178 22.143 17.4107 21.2501C17.4107 21.2501 16.5178 19.4644 17.4107 17.2323C17.4107 17.2323 19.6428 17.2323 21.4285 19.018C22.7678 18.1251 27.2321 18.1251 28.5714 19.018C30.3571 17.2323 32.5892 17.2323 32.5892 17.2323C33.4821 20.3573 32.5892 21.2501 32.5892 21.2501C33.4821 22.143 33.9285 23.4823 33.9285 25.268C33.9285 30.1787 30.8035 31.518 27.6785 31.9644C28.1249 32.4109 28.5714 33.3037 28.5714 34.643V38.2144C28.5714 38.6609 28.5714 39.1073 29.4642 39.1073C30.8035 39.1073 39.2857 35.0894 39.2857 25.7144C39.2857 17.6787 33.0357 11.4287 24.9999 11.4287Z" fill="#EEEEEE"/>
</svg>
