<svg width="50" height="50" viewBox="0 0 50 50" fill="none" xmlns="http://www.w3.org/2000/svg">
<circle cx="25" cy="25" r="25" fill="#6BBBAE"/>
<path d="M28.9375 20.5C27.9794 20.4968 27.0301 20.6824 26.1439 21.0464C25.2577 21.4104 24.4519 21.9455 23.7727 22.6212C23.0935 23.2969 22.5542 24.0999 22.1857 24.9843C21.8172 25.8686 21.6266 26.817 21.625 27.775V35.125C21.625 35.4234 21.7435 35.7096 21.9545 35.9205C22.1655 36.1315 22.4516 36.25 22.75 36.25H25.375C25.6734 36.25 25.9595 36.1315 26.1705 35.9205C26.3815 35.7096 26.5 35.4234 26.5 35.125V27.775C26.4998 27.4343 26.5713 27.0973 26.71 26.7861C26.8488 26.4748 27.0515 26.1963 27.3051 25.9687C27.5586 25.7411 27.8573 25.5695 28.1817 25.465C28.506 25.3606 28.8488 25.3257 29.1875 25.3625C29.795 25.4391 30.3533 25.7359 30.7565 26.1967C31.1597 26.6575 31.3798 27.2503 31.375 27.8625V35.125C31.375 35.4234 31.4935 35.7096 31.7045 35.9205C31.9155 36.1315 32.2016 36.25 32.5 36.25H35.125C35.4234 36.25 35.7095 36.1315 35.9205 35.9205C36.1315 35.7096 36.25 35.4234 36.25 35.125V27.775C36.2484 26.817 36.0578 25.8686 35.6893 24.9843C35.3208 24.0999 34.7815 23.2969 34.1023 22.6212C33.4231 21.9455 32.6173 21.4104 31.7311 21.0464C30.8449 20.6824 29.8956 20.4968 28.9375 20.5Z" fill="#EEEEEE"/>
<path d="M18.25 21.625H14.875C14.2537 21.625 13.75 22.1287 13.75 22.75V35.125C13.75 35.7463 14.2537 36.25 14.875 36.25H18.25C18.8713 36.25 19.375 35.7463 19.375 35.125V22.75C19.375 22.1287 18.8713 21.625 18.25 21.625Z" fill="#EEEEEE"/>
<path d="M16.5625 19.375C18.1158 19.375 19.375 18.1158 19.375 16.5625C19.375 15.0092 18.1158 13.75 16.5625 13.75C15.0092 13.75 13.75 15.0092 13.75 16.5625C13.75 18.1158 15.0092 19.375 16.5625 19.375Z" fill="#EEEEEE"/>
</svg>
